{"title":"Toast.2010.480p.BRRip.XviD.Ac3.Feel-Free","uid":6631687,"size":1053788547,"categoryP":"video","categoryS":"movies","magnet":"?xt=urn:btih:dd0e30b7a735b951e28c85fe78c296bc0ec8cc56&amp;dn=Toast.2010.480p.BRRip.XviD.Ac3.Feel-Free&amp;tr=udp%3A%2F%2Ftracker.openbittorrent.com%3A80&amp;tr=udp%3A%2F%2Fopen.demonii.com%3A1337&amp;tr=udp%3A%2F%2Ftracker.coppersurfer.tk%3A6969&amp;tr=udp%3A%2F%2Fexodus.desync.com%3A6969","seeders":0,"leechers":1,"uploader":".BONE.","files":9,"time":1314391530,"description":"Genre:Comedy | Drama\nLanguage:English\n &lt;a href=&quot;\nhttp://www.imdb.com/title/tt1658851/&quot; rel=&quot;nofollow&quot; target=&quot;_NEW&quot;&gt;\nhttp://www.imdb.com/title/tt1658851/&lt;/a&gt;\n\nSource:BluRay.x264.DTS-HDChina Thanks!\nSubtitles:Romana\n\nFormat : AVI\nFormat/Info : Audio Video Interleave\nFile size : 1 004 MiB\nDuration : 1h 36mn\nOverall bit rate : 1 461 Kbps\n\nVideo\nID : 0\nFormat : MPEG-4 Visual\nFormat profile : Advanced Simple@L5\nFormat settings, BVOP : Yes\nFormat settings, QPel : No\nFormat settings, GMC : No warppoints\nFormat settings, Matrix : Default (H.263)\nCodec ID : XVID\nCodec ID/Hint : XviD\nDuration : 1h 36mn\nBit rate : 1 004 Kbps\nWidth : 640 pixels\nHeight : 272 pixels\nDisplay aspect ratio : 2.35:1\nFrame rate : 24.000 fps\nColor space : YUV\nChroma subsampling : 4:2:0\nBit depth : 8 bits\nScan type : Progressive\nBits/(Pixel*Frame) : 0.240\nStream size : 690 MiB (69%)\nWriting library : XviD 1.2.1 (UTC 2008-12-04)\n\nAudio\nID : 1\nFormat : AC-3\nFormat/Info : Audio Coding 3\nMode extension : CM (complete main)\nCodec ID : 2000\nDuration : 1h 36mn\nBit rate mode : Constant\nBit rate : 448 Kbps\nChannel(s) : 6 channels\nChannel positions : Front: L C R, Side: L R, LFE\nSampling rate : 48.0 KHz\nBit depth : 16 bits\nStream size : 308 MiB (31%)\nAlignment : Aligned on interleaves\nInterleave, duration : 42 ms (1.00 video frame)\nInterleave, preload duration : 512 ms\n\n\nPlot:\nThe ultimate nostalgia trip through everything edible in 1960's Britain\n &lt;a href=&quot;\nhttp://www.pix2links.com/images/21345078272700382427.png&quot; rel=&quot;nofollow&quot; target=&quot;_NEW&quot;&gt;\nhttp://www.pix2links.com/images/21345078272700382427.png&lt;/a&gt;\n &lt;a href=&quot;\nhttp://www.pix2links.com/images/62514158788383638548.png&quot; rel=&quot;nofollow&quot; target=&quot;_NEW&quot;&gt;\nhttp://www.pix2links.com/images/62514158788383638548.png&lt;/a&gt;\n &lt;a href=&quot;\nhttp://www.pix2links.com/images/89999655715845585697.png&quot; rel=&quot;nofollow&quot; target=&quot;_NEW&quot;&gt;\nhttp://www.pix2links.com/images/89999655715845585697.png&lt;/a&gt;\n &lt;a href=&quot;\nhttp://www.pix2links.com/images/36105688343126932264.png&quot; rel=&quot;nofollow&quot; target=&quot;_NEW&quot;&gt;\nhttp://www.pix2links.com/images/36105688343126932264.png&lt;/a&gt;","torrent":{"xt":"urn:btih:dd0e30b7a735b951e28c85fe78c296bc0ec8cc56","amp;dn":"Toast.2010.480p.BRRip.XviD.Ac3.Feel-Free","amp;tr":["udp%3A%2F%2Ftracker.openbittorrent.com%3A80","udp%3A%2F%2Fopen.demonii.com%3A1337","udp%3A%2F%2Ftracker.coppersurfer.tk%3A6969","udp%3A%2F%2Fexodus.desync.com%3A6969"],"infoHash":"dd0e30b7a735b951e28c85fe78c296bc0ec8cc56","infoHashBuffer":{"type":"Buffer","data":[221,14,48,183,167,53,185,81,226,140,133,254,120,194,150,188,14,200,204,86]},"announce":[],"urlList":[]}}